<svg width="512" height="512" viewBox="0 0 512 512" xmlns="http://www.w3.org/2000/svg">
  <defs>
    <!-- Purple gradient for background -->
    <linearGradient id="ownerBg" x1="0%" y1="0%" x2="100%" y2="100%">
      <stop offset="0%" style="stop-color:#8b5cf6;stop-opacity:1" />
      <stop offset="100%" style="stop-color:#6d28d9;stop-opacity:1" />
    </linearGradient>
    
    <!-- Light purple gradient for droplet - STRONGER CONTRAST -->
    <linearGradient id="ownerDroplet" x1="0%" y1="0%" x2="0%" y2="100%">
      <stop offset="0%" style="stop-color:#c4b5fd;stop-opacity:1" />
      <stop offset="100%" style="stop-color:#8b5cf6;stop-opacity:1" />
    </linearGradient>
    
    <!-- Shadow -->
    <filter id="shadowOwner" x="-50%" y="-50%" width="200%" height="200%">
      <feDropShadow dx="0" dy="4" stdDeviation="8" flood-opacity="0.3" flood-color="#000000"/>
    </filter>
  </defs>
  
  <!-- Background circle -->
  <circle cx="256" cy="256" r="240" fill="url(#ownerBg)"/>
  
  <!-- Large water droplet with better contrast -->
  <path d="M 216 100 C 216 100 130 210 130 290 C 130 355 167 395 216 395 C 265 395 302 355 302 290 C 302 210 216 100 216 100 Z" 
        fill="url(#ownerDroplet)" 
        stroke="#c4b5fd" 
        stroke-width="2"
        filter="url(#shadowOwner)"/>
  
  <!-- Shine on droplet -->
  <ellipse cx="185" cy="240" rx="30" ry="45" fill="#ffffff" opacity="0.4"/>
  <ellipse cx="180" cy="230" rx="15" ry="25" fill="#ffffff" opacity="0.6"/>
  
  <!-- Chart with 4 bars - CHART STYLE -->
  <g transform="translate(298, 348) scale(1.8)">
    <rect x="-58" y="-24" width="16" height="61" rx="3" fill="#ffffff" opacity="0.9"/>
    <rect x="-35" y="-8" width="16" height="45" rx="3" fill="#ffffff" opacity="0.9"/>
    <rect x="-12" y="-24" width="16" height="61" rx="3" fill="#ffffff" opacity="0.95"/>
    <rect x="11" y="-42" width="16" height="79" rx="3" fill="#ffffff" opacity="0.95"/>
  </g>
  
  <!-- PESO SIGN -->
  <g transform="translate(385, 340)">
    <text x="0" y="0" font-family="Arial, sans-serif" font-size="85" 
          font-weight="bold" fill="#ffffff" opacity="1" 
          text-anchor="middle" dominant-baseline="middle">₱</text>
  </g>
</svg>
